<?xml version="1.0" encoding="UTF-8" standalone="no"?>
<!-- Generator: Adobe Illustrator 19.0.0, SVG Export Plug-In . SVG Version: 6.00 Build 0)  -->

<svg
   xmlns:dc="http://purl.org/dc/elements/1.1/"
   xmlns:cc="http://creativecommons.org/ns#"
   xmlns:rdf="http://www.w3.org/1999/02/22-rdf-syntax-ns#"
   xmlns:svg="http://www.w3.org/2000/svg"
   xmlns="http://www.w3.org/2000/svg"
   xmlns:sodipodi="http://sodipodi.sourceforge.net/DTD/sodipodi-0.dtd"
   xmlns:inkscape="http://www.inkscape.org/namespaces/inkscape"
   version="1.1"
   id="Capa_1"
   x="0px"
   y="0px"
   viewBox="0 0 598.21014 524.44745"
   xml:space="preserve"
   sodipodi:docname="ship-steering-wheel.svg"
   inkscape:version="0.92.3 (2405546, 2018-03-11)"
   width="598.21014"
   height="524.44745"><metadata
   id="metadata61"><rdf:RDF><cc:Work
       rdf:about=""><dc:format>image/svg+xml</dc:format><dc:type
         rdf:resource="http://purl.org/dc/dcmitype/StillImage" /><dc:title /></cc:Work></rdf:RDF></metadata><defs
   id="defs59">
	
</defs><sodipodi:namedview
   pagecolor="#ffffff"
   bordercolor="#666666"
   borderopacity="1"
   objecttolerance="10"
   gridtolerance="10"
   guidetolerance="10"
   inkscape:pageopacity="1"
   inkscape:pageshadow="2"
   inkscape:window-width="1299"
   inkscape:window-height="713"
   id="namedview57"
   showgrid="false"
   inkscape:zoom="0.4609375"
   inkscape:cx="-588.21696"
   inkscape:cy="204.93563"
   inkscape:window-x="67"
   inkscape:window-y="27"
   inkscape:window-maximized="1"
   inkscape:current-layer="Capa_1"
   fit-margin-top="0"
   fit-margin-left="0"
   fit-margin-right="0"
   fit-margin-bottom="0" />
<rect
   style="fill:#898989;fill-opacity:1;stroke:#0a0a0a;stroke-width:1.61765122;stroke-miterlimit:4;stroke-dasharray:none;stroke-opacity:1"
   id="rect841"
   width="596.61017"
   height="534.4472"
   x="0.79999089"
   y="0.72569466" />



<g
   id="g26"
   transform="translate(968.3932,63.511861)">
</g>
<g
   id="g28"
   transform="translate(968.3932,63.511861)">
</g>
<g
   id="g30"
   transform="translate(968.3932,63.511861)">
</g>
<g
   id="g32"
   transform="translate(968.3932,63.511861)">
</g>
<g
   id="g34"
   transform="translate(968.3932,63.511861)">
</g>
<g
   id="g36"
   transform="translate(968.3932,63.511861)">
</g>
<g
   id="g38"
   transform="translate(968.3932,63.511861)">
</g>
<g
   id="g40"
   transform="translate(968.3932,63.511861)">
</g>
<g
   id="g42"
   transform="translate(968.3932,63.511861)">
</g>
<g
   id="g44"
   transform="translate(968.3932,63.511861)">
</g>
<g
   id="g46"
   transform="translate(968.3932,63.511861)">
</g>
<g
   id="g48"
   transform="translate(968.3932,63.511861)">
</g>
<g
   id="g50"
   transform="translate(968.3932,63.511861)">
</g>
<g
   id="g52"
   transform="translate(968.3932,63.511861)">
</g>
<g
   id="g54"
   transform="translate(968.3932,63.511861)">
</g>
<path
   style="fill:none;stroke-width:2.16949153"
   d="m 1107.0952,459.73406 -23.285,-23.35746 v -75.35441 -75.3544 h 19.0373 19.0373 l 16.1626,-16.27118 16.1626,-16.27119 h 112.9358 112.9358 l 12.4066,12.53749 12.4067,12.53748 v 91.59811 91.59811 h -31.5875 -31.5875 l -11.4696,10.84745 -11.4696,10.84746 h -94.2002 -94.2003 z m 156.3489,-0.94084 c 3.356,-3.35603 3.356,-13.13211 0,-16.48814 -1.8669,-1.86681 -16.0844,-2.60339 -50.2507,-2.60339 h -47.6472 l -23.3595,-22.77966 c -23.6488,-23.06173 -28.8875,-25.92489 -35.4419,-19.37046 -6.9971,6.99709 -4.0023,12.20222 22.0484,38.32092 l 25.4576,25.52412 h 53.2949 c 38.559,0 54.0148,-0.71984 55.8984,-2.60339 z m 40.4145,-0.80582 c 4.3542,-4.35422 4.3542,-10.52228 0,-14.87651 -1.8751,-1.87506 -5.2223,-3.4092 -7.4383,-3.4092 -9.2558,0 -14.0177,11.70628 -7.4382,18.28571 1.875,1.87507 5.2222,3.40921 7.4382,3.40921 2.216,0 5.5632,-1.53414 7.4383,-3.40921 z"
   id="path72"
   inkscape:connector-curvature="0" /><path
   inkscape:connector-curvature="0"
   d="m 302.06777,529.48929 c -4.24898,0 -7.69186,-3.02063 -7.69186,-6.74853 V 468.65535 C 236.0409,466.97901 183.11168,446.27992 143.37555,413.41457 l -44.215879,38.79326 c -3.005978,2.63732 -7.873385,2.63732 -10.876287,0 -3.005978,-2.63463 -3.005978,-6.90779 0,-9.54242 L 132.53618,403.83707 C 95.713719,369.09021 72.564304,323.05983 70.672106,272.38377 H 9.0234029 c -4.2489823,0 -7.6918579,-3.02064 -7.6918579,-6.74853 0,-3.72789 3.4428756,-6.74853 7.6918579,-6.74853 H 70.669029 c 1.892198,-50.6761 25.04469,-96.70914 61.864071,-131.45598 L 88.283384,88.60239 c -3.005978,-2.63463 -3.005978,-6.907797 0,-9.542423 3.005979,-2.637326 7.873386,-2.637326 10.876287,0 L 143.37555,117.85321 C 183.11168,84.985174 236.0409,64.288785 294.37591,62.612449 V 8.527022 c 0,-3.727887 3.44288,-6.74853 7.69186,-6.74853 4.24898,0 7.69186,3.020643 7.69186,6.74853 V 62.61515 c 58.17814,1.673635 110.99043,22.270146 150.69273,54.98701 l 43.92666,-38.542193 c 3.00598,-2.637326 7.87339,-2.637326 10.87629,0 3.00597,2.634626 3.00597,6.907793 0,9.542423 l -43.94205,38.5557 c 36.98553,34.77652 60.25494,80.92025 62.15329,131.72592 h 61.64563 c 4.24898,0 7.69185,3.02064 7.69185,6.74853 0,3.72789 -3.44287,6.74853 -7.69185,6.74853 h -61.64563 c -1.89835,50.80564 -25.16776,96.94938 -62.15329,131.72593 l 43.94205,38.5557 c 3.00597,2.63463 3.00597,6.9078 0,9.54243 -3.00598,2.63733 -7.87339,2.63733 -10.87629,0 l -43.92666,-38.53951 c -39.69922,32.71417 -92.51151,53.31339 -150.69273,54.98702 v 54.08543 c 0,3.73059 -3.44288,6.75122 -7.69186,6.75122 z m 0,-453.487757 c -119.18069,0 -216.141171,85.069267 -216.141171,189.633707 0,104.56442 96.960481,189.63372 216.141171,189.63372 119.18073,0 216.14121,-85.0693 216.14121,-189.63372 0,-104.56444 -96.95741,-189.633707 -216.14121,-189.633707 z m 0,353.623007 c -51.10159,0 -97.48349,-18.08605 -131.2569,-47.34768 -0.31998,-0.20245 -0.62458,-0.43191 -0.91072,-0.68295 -0.28922,-0.25104 -0.54766,-0.51828 -0.7815,-0.79903 -33.35188,-29.63417 -53.96299,-70.3224 -53.96299,-115.15964 0,-44.83727 20.61111,-85.52549 53.96299,-115.15963 0.23384,-0.28074 0.49228,-0.54798 0.7815,-0.79903 0.28921,-0.25374 0.59074,-0.48049 0.91072,-0.68565 33.77649,-29.26162 80.15531,-47.34769 131.2569,-47.34769 51.11086,0 97.48968,18.08607 131.26617,47.35309 0.31691,0.20246 0.61535,0.42921 0.89841,0.67756 0.28614,0.24834 0.54151,0.51288 0.77227,0.78823 33.35804,29.63413 53.9753,70.32776 53.9753,115.17042 0,44.84263 -20.61726,85.53627 -53.9753,115.17044 -0.23076,0.27534 -0.48613,0.53989 -0.77227,0.78823 -0.28306,0.25105 -0.5815,0.47509 -0.89841,0.67755 -33.77649,29.26702 -80.15223,47.35578 -131.26617,47.35578 z m 7.69186,-102.26725 v 88.62173 c 41.51142,-1.61425 79.22306,-16.22887 107.98138,-39.31157 L 346.35134,314.0303 c -10.24864,7.23172 -22.83559,12.01508 -36.59171,13.32699 z m -123.36199,49.30476 c 28.75832,23.0827 66.46997,37.70002 107.98135,39.31427 V 327.3546 c -13.75612,-1.30922 -26.34307,-6.09527 -36.59167,-13.32971 z m 170.83306,-72.17687 71.3866,62.63716 c 26.3123,-25.23141 42.96979,-58.3181 44.80661,-94.73857 H 372.4175 c -1.49222,12.06907 -6.94421,23.10966 -15.1868,32.10141 z M 130.71167,272.38377 c 1.83989,36.42047 18.49739,69.50716 44.80661,94.73586 l 71.38967,-62.63445 c -8.24259,-8.99175 -13.69458,-20.03234 -15.18988,-32.10141 z m 171.3561,-55.33797 c -30.53667,0 -55.38134,21.79777 -55.38134,48.58944 0,26.79166 24.84467,48.58942 55.38134,48.58942 30.53668,0 55.38138,-21.79776 55.38138,-48.58942 0,-26.79167 -24.8447,-48.58944 -55.38138,-48.58944 z m 70.35281,41.84091 h 101.00641 c -1.8399,-36.4205 -18.49739,-69.50718 -44.80662,-94.73858 l -71.38967,62.63445 c 8.24259,8.99173 13.69458,20.03236 15.18988,32.10413 z m -241.70891,0 h 101.0064 c 1.49222,-12.06907 6.94729,-23.1124 15.19296,-32.10413 l -71.39275,-62.63445 c -26.30922,25.2314 -42.96672,58.31808 -44.80661,94.73858 z m 55.68597,-104.281 71.38968,62.63444 c 10.2486,-7.23172 22.83555,-12.01778 36.59167,-13.32699 v -88.62169 c -41.51446,1.61155 -79.2261,16.22887 -107.98135,39.31424 z m 123.36199,49.30474 c 13.75612,1.30922 26.34307,6.09527 36.59171,13.327 l 71.38967,-62.63443 c -28.75832,-23.08268 -66.46996,-37.7 -107.98138,-39.31155 z"
   id="path2"
   style="fill:#28dcdc;fill-opacity:1;stroke:none;stroke-width:2.88199997;stroke-miterlimit:4;stroke-dasharray:none;stroke-opacity:1" /></svg>